<svg width="401" height="72" viewBox="0 0 401 72" fill="none" xmlns="http://www.w3.org/2000/svg">
<path d="M111.072 24.056V33.848H122.592V38.312H111.072V48.536H124.032V53H105.6V19.592H124.032V24.056H111.072ZM142.1 39.608L150.644 53H144.452L138.74 44.024L133.364 53H127.652L136.196 39.992L127.652 26.552H133.844L139.556 35.528L144.932 26.552H150.644L142.1 39.608ZM152.901 39.656C152.901 37 153.445 34.648 154.533 32.6C155.653 30.552 157.157 28.968 159.045 27.848C160.965 26.696 163.077 26.12 165.381 26.12C167.461 26.12 169.269 26.536 170.805 27.368C172.373 28.168 173.621 29.176 174.549 30.392V26.552H180.069V53H174.549V49.064C173.621 50.312 172.357 51.352 170.757 52.184C169.157 53.016 167.333 53.432 165.285 53.432C163.013 53.432 160.933 52.856 159.045 51.704C157.157 50.52 155.653 48.888 154.533 46.808C153.445 44.696 152.901 42.312 152.901 39.656ZM174.549 39.752C174.549 37.928 174.165 36.344 173.397 35C172.661 33.656 171.685 32.632 170.469 31.928C169.253 31.224 167.941 30.872 166.533 30.872C165.125 30.872 163.813 31.224 162.597 31.928C161.381 32.6 160.389 33.608 159.621 34.952C158.885 36.264 158.517 37.832 158.517 39.656C158.517 41.48 158.885 43.08 159.621 44.456C160.389 45.832 161.381 46.888 162.597 47.624C163.845 48.328 165.157 48.68 166.533 48.68C167.941 48.68 169.253 48.328 170.469 47.624C171.685 46.92 172.661 45.896 173.397 44.552C174.165 43.176 174.549 41.576 174.549 39.752ZM219.272 26.12C221.352 26.12 223.208 26.552 224.84 27.416C226.504 28.28 227.8 29.56 228.728 31.256C229.688 32.952 230.168 35 230.168 37.4V53H224.744V38.216C224.744 35.848 224.152 34.04 222.968 32.792C221.784 31.512 220.168 30.872 218.12 30.872C216.072 30.872 214.44 31.512 213.224 32.792C212.04 34.04 211.448 35.848 211.448 38.216V53H206.024V38.216C206.024 35.848 205.432 34.04 204.248 32.792C203.064 31.512 201.448 30.872 199.4 30.872C197.352 30.872 195.72 31.512 194.504 32.792C193.32 34.04 192.728 35.848 192.728 38.216V53H187.256V26.552H192.728V29.576C193.624 28.488 194.76 27.64 196.136 27.032C197.512 26.424 198.984 26.12 200.552 26.12C202.664 26.12 204.552 26.568 206.216 27.464C207.88 28.36 209.16 29.656 210.056 31.352C210.856 29.752 212.104 28.488 213.8 27.56C215.496 26.6 217.32 26.12 219.272 26.12ZM261.275 29.24C260.411 27.576 259.211 26.328 257.675 25.496C256.139 24.632 254.363 24.2 252.347 24.2C250.139 24.2 248.171 24.696 246.443 25.688C244.715 26.68 243.355 28.088 242.363 29.912C241.403 31.736 240.923 33.848 240.923 36.248C240.923 38.648 241.403 40.776 242.363 42.632C243.355 44.456 244.715 45.864 246.443 46.856C248.171 47.848 250.139 48.344 252.347 48.344C255.323 48.344 257.739 47.512 259.595 45.848C261.451 44.184 262.587 41.928 263.003 39.08H250.475V34.712H268.859V38.984C268.507 41.576 267.579 43.96 266.075 46.136C264.603 48.312 262.667 50.056 260.267 51.368C257.899 52.648 255.259 53.288 252.347 53.288C249.211 53.288 246.347 52.568 243.755 51.128C241.163 49.656 239.099 47.624 237.563 45.032C236.059 42.44 235.307 39.512 235.307 36.248C235.307 32.984 236.059 30.056 237.563 27.464C239.099 24.872 241.163 22.856 243.755 21.416C246.379 19.944 249.243 19.208 252.347 19.208C255.899 19.208 259.051 20.088 261.803 21.848C264.587 23.576 266.603 26.04 267.851 29.24H261.275ZM298.496 39.128C298.496 40.12 298.432 41.016 298.304 41.816H278.096C278.256 43.928 279.04 45.624 280.448 46.904C281.856 48.184 283.584 48.824 285.632 48.824C288.576 48.824 290.656 47.592 291.872 45.128H297.776C296.976 47.56 295.52 49.56 293.408 51.128C291.328 52.664 288.736 53.432 285.632 53.432C283.104 53.432 280.832 52.872 278.816 51.752C276.832 50.6 275.264 49 274.112 46.952C272.992 44.872 272.432 42.472 272.432 39.752C272.432 37.032 272.976 34.648 274.064 32.6C275.184 30.52 276.736 28.92 278.72 27.8C280.736 26.68 283.04 26.12 285.632 26.12C288.128 26.12 290.352 26.664 292.304 27.752C294.256 28.84 295.776 30.376 296.864 32.36C297.952 34.312 298.496 36.568 298.496 39.128ZM292.784 37.4C292.752 35.384 292.032 33.768 290.624 32.552C289.216 31.336 287.472 30.728 285.392 30.728C283.504 30.728 281.888 31.336 280.544 32.552C279.2 33.736 278.4 35.352 278.144 37.4H292.784ZM317.225 26.12C319.305 26.12 321.161 26.552 322.793 27.416C324.457 28.28 325.753 29.56 326.681 31.256C327.609 32.952 328.073 35 328.073 37.4V53H322.649V38.216C322.649 35.848 322.057 34.04 320.873 32.792C319.689 31.512 318.073 30.872 316.025 30.872C313.977 30.872 312.345 31.512 311.129 32.792C309.945 34.04 309.353 35.848 309.353 38.216V53H303.881V26.552H309.353V29.576C310.249 28.488 311.385 27.64 312.761 27.032C314.169 26.424 315.657 26.12 317.225 26.12ZM337.837 23.048C336.845 23.048 336.013 22.712 335.341 22.04C334.669 21.368 334.333 20.536 334.333 19.544C334.333 18.552 334.669 17.72 335.341 17.048C336.013 16.376 336.845 16.04 337.837 16.04C338.797 16.04 339.613 16.376 340.285 17.048C340.957 17.72 341.293 18.552 341.293 19.544C341.293 20.536 340.957 21.368 340.285 22.04C339.613 22.712 338.797 23.048 337.837 23.048ZM340.525 26.552V53H335.053V26.552H340.525ZM371.661 26.552V53H366.189V49.88C365.325 50.968 364.189 51.832 362.781 52.472C361.405 53.08 359.933 53.384 358.365 53.384C356.285 53.384 354.413 52.952 352.749 52.088C351.117 51.224 349.821 49.944 348.861 48.248C347.933 46.552 347.469 44.504 347.469 42.104V26.552H352.893V41.288C352.893 43.656 353.485 45.48 354.669 46.76C355.853 48.008 357.469 48.632 359.517 48.632C361.565 48.632 363.181 48.008 364.365 46.76C365.581 45.48 366.189 43.656 366.189 41.288V26.552H371.661ZM388.481 53.432C386.401 53.432 384.529 53.064 382.865 52.328C381.233 51.56 379.937 50.536 378.977 49.256C378.017 47.944 377.505 46.488 377.441 44.888H383.105C383.201 46.008 383.729 46.952 384.689 47.72C385.681 48.456 386.913 48.824 388.385 48.824C389.921 48.824 391.105 48.536 391.937 47.96C392.801 47.352 393.233 46.584 393.233 45.656C393.233 44.664 392.753 43.928 391.793 43.448C390.865 42.968 389.377 42.44 387.329 41.864C385.345 41.32 383.729 40.792 382.481 40.28C381.233 39.768 380.145 38.984 379.217 37.928C378.321 36.872 377.873 35.48 377.873 33.752C377.873 32.344 378.289 31.064 379.121 29.912C379.953 28.728 381.137 27.8 382.673 27.128C384.241 26.456 386.033 26.12 388.049 26.12C391.057 26.12 393.473 26.888 395.297 28.424C397.153 29.928 398.145 31.992 398.273 34.616H392.801C392.705 33.432 392.225 32.488 391.361 31.784C390.497 31.08 389.329 30.728 387.857 30.728C386.417 30.728 385.313 31 384.545 31.544C383.777 32.088 383.393 32.808 383.393 33.704C383.393 34.408 383.649 35 384.161 35.48C384.673 35.96 385.297 36.344 386.033 36.632C386.769 36.888 387.857 37.224 389.297 37.64C391.217 38.152 392.785 38.68 394.001 39.224C395.249 39.736 396.321 40.504 397.217 41.528C398.113 42.552 398.577 43.912 398.609 45.608C398.609 47.112 398.193 48.456 397.361 49.64C396.529 50.824 395.345 51.752 393.809 52.424C392.305 53.096 390.529 53.432 388.481 53.432Z" fill="white"/>
<path d="M17.205 70.5216L15.5979 71.2779L18.623 71.467L20.4191 71.2779L23.8223 70.8052L28.9271 69.9544L34.6936 68.5364L37.5296 67.5911L43.2961 65.5114L49.4408 62.7699L55.2073 59.3667L58.0433 57.287L58.705 56.8144L62.6754 53.4112L67.402 48.2118L69.2927 45.5649L70.6162 43.2016L72.4123 39.4203L73.7358 35.4499L74.0194 32.803L73.9248 29.1162L73.5467 25.6185L72.7904 22.7825L71.1834 19.6629L70.7107 18.5285L69.6708 17.2995L69.9544 17.1105L71.0888 16.1651H71.3724L75.1538 17.4886L73.2631 19.5683V20.5137V21.6481L73.9248 21.9317L75.1538 22.4043H75.8155L76.4772 22.3098L77.8952 21.9317L79.9749 21.2699L81.4875 20.8918L82.6219 20.5137L83 20.2301L82.4328 19.5683L82.0547 18.8121L80.9203 17.9613L81.1093 17.4886L82.0547 16.6378L82.8109 15.8815L82.6219 15.5034H80.5421H78.746L78.1788 15.8815H76.8553H75.721L72.885 14.8417L73.6412 13.8018L74.492 12.3838L74.8702 11.2494V9.54784V8.22437L74.303 6.61731L73.6412 5.29385L72.885 4.34852L72.3178 4.06492H71.8451L71.3724 4.91572V5.76652L70.8052 4.91572L69.4818 3.87585L68.5364 3.11959L66.7403 2.07973L65.3223 1.418L63.4317 0.94533L61.7301 0.567198L59.3667 0.189066L56.1526 0H53.7893L46.0376 0.756264L35.7335 4.06492L33.0866 5.19932L32.2358 5.48292L30.6287 6.33371L25.1458 8.98064L24.0114 9.35877L18.1503 13.2346L16.9214 14.4636L15.787 15.2198L14.18 17.1105L13.2346 17.8667L12.1002 19.5683L10.7768 21.9317L10.3986 24.3895V26.9419V29.2107L8.79157 30.6287L7.27904 31.6686L6.33371 32.3303L4.53759 32.803L2.36333 33.6538L0.94533 34.5046L0.283599 35.2608L0 36.8679L0.283599 38.0023L1.32346 39.7984L6.05011 40.8383H6.61731L10.3986 40.5547L14.5581 39.7984L20.041 38.7585L21.459 40.8383L24.0114 45.6595L24.9567 47.9282L26.1856 52.3713L26.6583 53.7893L26.7528 58.9886L26.4692 60.4066L25.9021 61.8246L25.0513 63.8098L23.8223 65.3223L22.4043 67.0239L20.2301 68.9146L17.205 70.5216Z" fill="url(#paint0_linear_236_5)"/>
<ellipse cx="49.8182" cy="41.689" rx="13.4237" ry="6.05011" fill="white"/>
<circle cx="66.2696" cy="30.345" r="1.89066" fill="white"/>
<defs>
<linearGradient id="paint0_linear_236_5" x1="41.5" y1="0" x2="41.5" y2="71.467" gradientUnits="userSpaceOnUse">
<stop stop-color="#2742F5"/>
<stop offset="1" stop-color="#6B81FA" stop-opacity="0.56"/>
</linearGradient>
</defs>
</svg>
