<svg width="317" height="14" viewBox="0 0 317 14" fill="none" xmlns="http://www.w3.org/2000/svg">
<path d="M0.968212 7.51576L1.15552 7.38984C1.53544 7.13443 1.97577 6.98328 2.43246 6.95152L35.2865 4.66667L96.604 1.75L139.989 0H185.688L216.925 1.16667H226.759L246.427 1.75L302.538 5.25L306.721 5.63348C308.171 5.76637 309.604 6.04572 310.997 6.46724L314.131 7.41548C314.498 7.5265 314.843 7.70173 315.148 7.93301C316.256 8.77035 316.704 10.2283 316.269 11.5463C315.997 12.3672 315.409 13.052 314.637 13.4412L314.504 13.5085C313.868 13.829 313.152 13.9553 312.445 13.8714L303.695 12.8333L290.969 11.0833L275.929 9.91667L242.378 8.16667L168.912 7H153.872L64.7883 9.91667L52.062 11.0833H41.0712L6.36314 13.4167H2.49659C2.00041 13.4167 1.51548 13.2688 1.1037 12.992L0.968212 12.9009C0.362995 12.494 0 11.8126 0 11.0833V9.33333C0 8.60406 0.362994 7.92263 0.968212 7.51576Z" fill="url(#paint0_linear_216_16)"/>
<defs>
<linearGradient id="paint0_linear_216_16" x1="158.5" y1="0" x2="158.5" y2="14" gradientUnits="userSpaceOnUse">
<stop offset="0.348958" stop-color="#2742F5"/>
<stop offset="1" stop-color="#6B81FA" stop-opacity="0"/>
</linearGradient>
</defs>
</svg>
