<svg width="83" height="72" viewBox="0 0 83 72" fill="none" xmlns="http://www.w3.org/2000/svg">
<path d="M17.205 70.5216L15.5979 71.2779L18.623 71.467L20.4191 71.2779L23.8223 70.8052L28.9271 69.9544L34.6936 68.5364L37.5296 67.5911L43.2961 65.5114L49.4408 62.7699L55.2073 59.3667L58.0433 57.287L58.705 56.8144L62.6754 53.4112L67.402 48.2118L69.2927 45.5649L70.6162 43.2016L72.4123 39.4203L73.7358 35.4499L74.0194 32.803L73.9248 29.1162L73.5467 25.6185L72.7904 22.7825L71.1834 19.6629L70.7107 18.5285L69.6708 17.2995L69.9544 17.1105L71.0888 16.1651H71.3724L75.1538 17.4886L73.2631 19.5683V20.5137V21.6481L73.9248 21.9317L75.1538 22.4043H75.8155L76.4772 22.3098L77.8952 21.9317L79.9749 21.2699L81.4875 20.8918L82.6219 20.5137L83 20.2301L82.4328 19.5683L82.0547 18.8121L80.9203 17.9613L81.1093 17.4886L82.0547 16.6378L82.8109 15.8815L82.6219 15.5034H80.5421H78.746L78.1788 15.8815H76.8553H75.721L72.885 14.8417L73.6412 13.8018L74.492 12.3838L74.8702 11.2494V9.54784V8.22437L74.303 6.61731L73.6412 5.29385L72.885 4.34852L72.3178 4.06492H71.8451L71.3724 4.91572V5.76652L70.8052 4.91572L69.4818 3.87585L68.5364 3.11959L66.7403 2.07973L65.3223 1.418L63.4317 0.94533L61.7301 0.567198L59.3667 0.189066L56.1526 0H53.7893L46.0376 0.756264L35.7335 4.06492L33.0866 5.19932L32.2358 5.48292L30.6287 6.33371L25.1458 8.98064L24.0114 9.35877L18.1503 13.2346L16.9214 14.4636L15.787 15.2198L14.18 17.1105L13.2346 17.8667L12.1002 19.5683L10.7768 21.9317L10.3986 24.3895V26.9419V29.2107L8.79157 30.6287L7.27904 31.6686L6.33371 32.3303L4.53759 32.803L2.36333 33.6538L0.94533 34.5046L0.283599 35.2608L0 36.8679L0.283599 38.0023L1.32346 39.7984L6.05011 40.8383H6.61731L10.3986 40.5547L14.5581 39.7984L20.041 38.7585L21.459 40.8383L24.0114 45.6595L24.9567 47.9282L26.1856 52.3713L26.6583 53.7893L26.7528 58.9886L26.4692 60.4066L25.9021 61.8246L25.0513 63.8098L23.8223 65.3223L22.4043 67.0239L20.2301 68.9146L17.205 70.5216Z" fill="url(#paint0_linear_1_5)"/>
<ellipse cx="49.819" cy="41.689" rx="13.4237" ry="6.05011" fill="white"/>
<circle cx="66.2676" cy="30.3451" r="1.89066" fill="white"/>
<defs>
<linearGradient id="paint0_linear_1_5" x1="41.5" y1="0" x2="41.5" y2="71.467" gradientUnits="userSpaceOnUse">
<stop stop-color="#2742F5"/>
<stop offset="1" stop-color="#6B81FA" stop-opacity="0.56"/>
</linearGradient>
</defs>
</svg>
