<svg width="63" height="54" viewBox="0 0 63 54" fill="none" xmlns="http://www.w3.org/2000/svg">
<path d="M13 53.2857L11.7857 53.8571L14.0714 54L15.4286 53.8571L18 53.5L21.8571 52.8571L26.2143 51.7857L28.3571 51.0714L32.7143 49.5L37.3571 47.4286L41.7143 44.8571L43.8571 43.2857L44.3571 42.9286L47.3571 40.3571L50.9286 36.4286L52.3571 34.4286L53.3571 32.6429L54.7143 29.7857L55.7143 26.7857L55.9286 24.7857L55.8571 22L55.5714 19.3571L55 17.2143L53.7857 14.8571L53.4286 14L52.6429 13.0714L52.8571 12.9286L53.7143 12.2143H53.9286L56.7857 13.2143L55.3571 14.7857V15.5V16.3571L55.8571 16.5714L56.7857 16.9286H57.2857L57.7857 16.8571L58.8571 16.5714L60.4286 16.0714L61.5714 15.7857L62.4286 15.5L62.7143 15.2857L62.2857 14.7857L62 14.2143L61.1429 13.5714L61.2857 13.2143L62 12.5714L62.5714 12L62.4286 11.7143H60.8571H59.5L59.0714 12H58.0714H57.2143L55.0714 11.2143L55.6429 10.4286L56.2857 9.35714L56.5714 8.5V7.21429V6.21429L56.1429 5L55.6429 4L55.0714 3.28571L54.6429 3.07143H54.2857L53.9286 3.71429V4.35714L53.5 3.71429L52.5 2.92857L51.7857 2.35714L50.4286 1.57143L49.3571 1.07143L47.9286 0.714286L46.6429 0.428571L44.8571 0.142857L42.4286 0H40.6429L34.7857 0.571429L27 3.07143L25 3.92857L24.3571 4.14286L23.1429 4.78571L19 6.78571L18.1429 7.07143L13.7143 10L12.7857 10.9286L11.9286 11.5L10.7143 12.9286L10 13.5L9.14286 14.7857L8.14286 16.5714L7.85714 18.4286V20.3571V22.0714L6.64286 23.1429L5.5 23.9286L4.78571 24.4286L3.42857 24.7857L1.78571 25.4286L0.714286 26.0714L0.214286 26.6429L0 27.8571L0.214286 28.7143L1 30.0714L4.57143 30.8571H5L7.85714 30.6429L11 30.0714L15.1429 29.2857L16.2143 30.8571L18.1429 34.5L18.8571 36.2143L19.7857 39.5714L20.1429 40.6429L20.2143 44.5714L20 45.6429L19.5714 46.7143L18.9286 48.2143L18 49.3571L16.9286 50.6429L15.2857 52.0714L13 53.2857Z" fill="#2742F5"/>
<ellipse cx="37.6427" cy="31.4998" rx="10.1429" ry="4.57143" fill="white"/>
<circle cx="50.0714" cy="22.9283" r="1.42857" fill="white"/>
</svg>
